# xmcd
#
# Track frame offsets:
#	150
#	12432
#	24090
#	35380
#	46318
#	56379
#	68639
#	80904
#	91976
#	104313
#
# Disc length: 1506 seconds
#
# Revision: 4
# Processed by: cddbd v1.5.2PL0 Copyright (c) Steve Scherf et al.
# Submitted via: audiograbber 1.83.01
#
DISCID=7205e00a
DTITLE=Marvin Gaye - That Stubborn Kinda' Fellow
DYEAR=1962
DGENRE=Oldies
TTITLE0=Stubborn Kind Of Fellow
TTITLE1=Pride and Joy
TTITLE2=Hitch Hike
TTITLE3=Get My Hands On Some Lovin'
TTITLE4=Wherever I Lay My Hat
TTITLE5=Soldier's Plea
TTITLE6=It Hurt Me Too
TTITLE7=Taking My Time
TTITLE8=Hello There Angel
TTITLE9=I'm Yours, You're Mine
EXTD=
EXTT0=
EXTT1=
EXTT2=
EXTT3=
EXTT4=
EXTT5=
EXTT6=
EXTT7=
EXTT8=
EXTT9=
PLAYORDER=
